<svg width="24.5" height="22.75" viewBox="0 0 26 24" fill="none" xmlns="http://www.w3.org/2000/svg">
    <path fill-rule="evenodd" clip-rule="evenodd" d="M14.5225 23.25L13 22.375L16.5 16.25H21.75C22.7165 16.25 23.5 15.4665 23.5 14.5V4C23.5 3.0335 22.7165 2.25 21.75 2.25H4.25C3.2835 2.25 2.5 3.0335 2.5 4V14.5C2.5 15.4665 3.2835 16.25 4.25 16.25H12.125V18H4.25C2.317 18 0.75 16.433 0.75 14.5V4C0.75 2.067 2.317 0.5 4.25 0.5H21.75C23.683 0.5 25.25 2.067 25.25 4V14.5C25.25 16.433 23.683 18 21.75 18H17.515L14.5225 23.25ZM20 5.75H6V7.5H20V5.75ZM14.75 11H6V12.75H14.75V11Z" fill="#BEBEBE"/>
</svg>